<svg viewBox="0 0 29 29" xmlns="http://www.w3.org/2000/svg"><path d="M21.119,11.524c-0.064-0.18-0.129-0.357-0.232-0" stroke="#1fbba6" fill-opacity="0" stroke-opacity="1" stroke-width="0.5" stroke-linecap="round" stroke-linejoin="round" style="stroke-dasharray: 1, 1; stroke-dashoffset: 0; display: block;"></path><path d="M21.119,11.524c-0.064-0.18-0.129-0.357-0.232-0.535l-0.15-0.262c0.34-0.48,0.529-0.994,0.529-1.533V6.132   c0-0.414-0.115-0.836-0.344-1.252L20.85,4.745c0.096-0.219,0.16-0.447,0.16-0.686c0-2.474-5.348-3.81-10.377-3.81   c-5.031,0-10.377,1.336-10.377,3.811c0,0.238,0.064,0.469,0.16,0.686L0.344,4.88C0.117,5.298,0,5.718,0,6.132v3.062   c0,0.539,0.189,1.053,0.527,1.533l-0.15,0.264C0.127,11.425,0,11.866,0,12.3v3.062c0,0.525,0.18,1.027,0.504,1.5l-0.127,0.213   C0.127,17.511,0,17.952,0,18.386v3.062c0,2.721,4.67,4.854,10.633,4.854c1.217,0,2.381-0.094,3.463-0.26   c-0.07-0.092-0.121-0.195-0.188-0.291c1.574,1.762,3.85,2.881,6.391,2.881c4.732,0,8.582-3.85,8.582-8.582   C28.881,15.595,25.465,11.942,21.119,11.524z M10.633,1.388c5.725,0,9.24,1.555,9.24,2.672c0,1.115-3.516,2.672-9.24,2.672   S1.395,5.175,1.395,4.06C1.395,2.942,4.908,1.388,10.633,1.388z M1.139,6.647C2.846,8.092,6.801,8.84,10.633,8.84   c3.834,0,7.785-0.748,9.494-2.195v2.549c0,1.758-3.898,3.715-9.494,3.715s-9.494-1.957-9.494-3.715   C1.139,9.194,1.139,6.647,1.139,6.647z M1.139,12.481c1.744,1.598,5.338,2.619,9.494,2.619c0.988,0,1.926-0.076,2.828-0.188   c-0.697,0.924-1.225,1.982-1.502,3.145c-0.074,0.316-0.135,0.639-0.176,0.967c-0.381,0.021-0.75,0.051-1.15,0.051   c-5.596,0-9.494-1.957-9.494-3.713C1.139,15.362,1.139,12.481,1.139,12.481z M10.633,25.163c-5.596,0-9.494-1.959-9.494-3.715   v-2.881c1.744,1.602,5.338,2.621,9.494,2.621c0.398,0,0.777-0.027,1.162-0.049c0.135,1.043,0.449,2.029,0.922,2.918   c0.174,0.332,0.381,0.639,0.594,0.939C12.473,25.101,11.578,25.163,10.633,25.163z M20.299,26.923   c-1.982,0-3.768-0.848-5.021-2.193c-0.285-0.305-0.541-0.633-0.764-0.984c-0.686-1.07-1.088-2.332-1.088-3.695   c0-0.02,0.002-0.039,0.002-0.059c0.002-0.398,0.045-0.787,0.113-1.168c0.062-0.348,0.154-0.688,0.266-1.016   c0.842-2.426,2.996-4.232,5.609-4.57c0.291-0.039,0.582-0.062,0.883-0.062c0.086,0,0.17,0.01,0.258,0.012   c3.668,0.141,6.615,3.158,6.615,6.863C27.172,23.837,24.088,26.923,20.299,26.923z" stroke="#1fbba6" fill-opacity="0" stroke-opacity="1" stroke-width="0.5" stroke-linecap="round" stroke-linejoin="round" style="stroke-dasharray: 293, 293; stroke-dashoffset: 0; display: block;"></path><path d="M25.611,17.593l-0.867-0.865c-0.16-0.158-0.42-0.158-0.578,0l-4.803,4.803l-2.475-2.49c-0.156-0.158-0.416-0.158-0.578,0   l-0.863,0.865c-0.158,0.162-0.158,0.418,0,0.578l3.627,3.648c0.158,0.158,0.416,0.158,0.576,0l5.961-5.959   C25.77,18.015,25.77,17.751,25.611,17.593z" stroke="#1fbba6" fill-opacity="0" stroke-opacity="1" stroke-width="0.5" stroke-linecap="round" stroke-linejoin="round" style="stroke-dasharray: 30, 30; stroke-dashoffset: 0; display: block;"></path></svg>